<svg xmlns="http://www.w3.org/2000/svg" viewBox="0 0 512 512"><title>Building12</title><g id="Building_12" data-name="Building 12"><g id="Building_12-2" data-name="Building 12"><path d="M402.4768,272.54H347.5534V114.2473a9.4494,9.4494,0,0,0-9.45-9.45h-164.21a9.4488,9.4488,0,0,0-9.45,9.45V272.54H109.5232a9.45,9.45,0,0,0-9.45,9.45v25.9875a9.45,9.45,0,0,0,9.45,9.45h2.3625v80.325a9.4494,9.4494,0,0,0,9.45,9.45H390.6643a9.4494,9.4494,0,0,0,9.45-9.45v-80.325h2.3625a9.4494,9.4494,0,0,0,9.45-9.45V281.99A9.45,9.45,0,0,0,402.4768,272.54Zm-9.45,18.9v7.0875H347.5534V291.44ZM328.6534,123.6973v8.6652H183.3439v-8.6652ZM118.9732,291.44h45.4707v7.0875H118.9732ZM286.32,388.3027V332.0473a30.3188,30.3188,0,1,0-60.6376,0v56.2554h-42.336v-237.04h145.31v237.04Z"/><rect x="202.1494" y="170.2192" width="18.9" height="34.65"/><rect x="246.5482" y="170.2192" width="18.9" height="34.65"/><rect x="290.9443" y="170.2192" width="18.9" height="34.65"/><rect x="202.1494" y="234.2677" width="18.9" height="34.65"/><rect x="246.5482" y="234.2677" width="18.9" height="34.65"/><rect x="290.9443" y="234.2677" width="18.9" height="34.65"/></g></g></svg>