<?xml version="1.0" encoding="utf-8"?>
<svg id="svg2" viewBox="0 0 500 670" xmlns="http://www.w3.org/2000/svg">
  <desc>Source: openclipart.org/detail/209545</desc>
  <g id="svg-1" transform="matrix(1.360877, 0, 0, 1.360877, 60.799324, -198.581558)" style="">
    <desc>Source: openclipart.org/detail/209545</desc>
    <g id="Layer_1" transform="matrix(4.06567, 0, 0, 4.788287, -2182.173828, 535.323059)" style="">
      <title>endorsement</title>
      <path class="cls-1" d="M 570.761 -71.205 C 571.32 -72.531 572.354 -73.601 573.661 -74.205 C 575.135 -74.836 576.785 -74.928 578.321 -74.465 C 579.938 -74.006 581.45 -73.234 582.771 -72.195 C 587.59 -68.303 590.546 -62.559 590.911 -56.375 C 591.056 -54.042 591.022 -51.702 590.811 -49.375 C 590.681 -47.735 590.471 -46.005 590.181 -44.215 L 607.111 -44.215 C 609.769 -44.134 612.376 -43.471 614.751 -42.275 C 616.639 -41.323 618.253 -39.905 619.441 -38.155 C 620.665 -36.285 621.263 -34.076 621.151 -31.845 C 621.04 -29.824 620.519 -27.848 619.621 -26.035 C 620.221 -23.752 620.377 -21.376 620.081 -19.035 C 619.849 -17.238 619.03 -15.568 617.751 -14.285 C 617.85 -11.599 617.439 -8.918 616.541 -6.385 C 615.717 -4.173 614.432 -2.161 612.771 -0.485 C 612.647 0.938 612.396 2.347 612.021 3.725 C 611.589 5.343 610.878 6.872 609.921 8.245 C 607.041 12.305 604.741 12.245 601.101 12.055 C 600.591 12.055 600.101 12.055 599.211 12.055 L 566.211 12.055 C 563.654 12.159 561.109 11.648 558.791 10.565 C 556.496 9.323 554.505 7.588 552.961 5.485 L 552.541 4.035 L 552.541 -34.415 L 554.221 -34.865 C 558.441 -36.035 561.781 -39.645 564.391 -44.035 C 566.871 -48.442 568.828 -53.123 570.221 -57.985 L 570.221 -67.985 C 570.103 -69.097 570.29 -70.22 570.761 -71.235 L 570.761 -71.205 Z M 528.921 -38.435 L 545.271 -38.435 C 547.143 -38.429 548.656 -36.907 548.651 -35.035 L 548.651 9.895 C 548.645 11.76 547.135 13.27 545.271 13.275 L 528.921 13.275 C 527.049 13.27 525.535 11.748 525.541 9.875 L 525.541 -35.035 C 525.535 -36.907 527.049 -38.429 528.921 -38.435 Z M 575.541 -70.165 C 575.08 -69.871 574.775 -69.387 574.711 -68.845 L 574.711 -57.635 L 574.611 -56.995 C 573.104 -51.658 570.962 -46.521 568.231 -41.695 C 565.411 -37.035 561.761 -32.945 557.011 -31.035 L 557.011 3.285 C 558.045 4.622 559.346 5.729 560.831 6.535 C 562.533 7.293 564.39 7.636 566.251 7.535 L 599.251 7.535 C 599.841 7.535 600.601 7.535 601.321 7.595 C 603.481 7.675 604.841 7.735 606.321 5.675 C 606.977 4.72 607.461 3.657 607.751 2.535 C 608.118 1.179 608.343 -0.212 608.421 -1.615 L 609.111 -3.095 C 610.564 -4.427 611.684 -6.081 612.381 -7.925 C 613.174 -10.264 613.471 -12.744 613.251 -15.205 L 613.171 -16.535 L 614.301 -17.235 C 615.104 -17.831 615.608 -18.747 615.681 -19.745 C 615.902 -21.763 615.708 -23.805 615.111 -25.745 L 615.291 -27.375 C 616.082 -28.81 616.553 -30.4 616.671 -32.035 C 616.736 -33.336 616.386 -34.625 615.671 -35.715 C 614.904 -36.822 613.873 -37.719 612.671 -38.325 C 610.919 -39.202 608.999 -39.69 607.041 -39.755 L 584.801 -39.755 L 585.301 -42.415 C 585.781 -44.995 586.131 -47.415 586.301 -49.785 C 586.495 -51.889 586.531 -54.005 586.411 -56.115 C 586.137 -61.004 583.817 -65.552 580.021 -68.645 C 579.173 -69.324 578.202 -69.834 577.161 -70.145 C 576.626 -70.327 576.046 -70.327 575.511 -70.145 L 575.541 -70.165 Z" style="fill: rgb(33, 33, 33); stroke-width: 1;"/>
    </g>
  </g>
</svg>